<svg width="35" height="35" viewBox="0 0 35 35" fill="none" xmlns="http://www.w3.org/2000/svg">
<path d="M22.6043 20.4166H21.4522L21.0439 20.0228C21.9553 18.964 22.6214 17.7169 22.9945 16.3706C23.3676 15.0243 23.4386 13.6122 23.2022 12.2353C22.5168 8.18115 19.1335 4.94365 15.0501 4.44782C13.6146 4.26621 12.1565 4.4154 10.7875 4.88399C9.41844 5.35258 8.17475 6.12814 7.15157 7.15132C6.12838 8.17451 5.35282 9.4182 4.88423 10.7872C4.41565 12.1563 4.26645 13.6143 4.44806 15.0499C4.9439 19.1332 8.1814 22.5166 12.2356 23.202C13.6125 23.4383 15.0246 23.3674 16.3708 22.9942C17.7171 22.6211 18.9643 21.955 20.0231 21.0437L20.4168 21.452V22.6041L26.6147 28.802C27.2126 29.3999 28.1897 29.3999 28.7876 28.802C29.3856 28.2041 29.3856 27.227 28.7876 26.6291L22.6043 20.4166ZM13.8543 20.4166C10.2231 20.4166 7.29181 17.4853 7.29181 13.8541C7.29181 10.2228 10.2231 7.29157 13.8543 7.29157C17.4856 7.29157 20.4168 10.2228 20.4168 13.8541C20.4168 17.4853 17.4856 20.4166 13.8543 20.4166Z" fill="#0079C2"/>
</svg>
