<svg width="35" height="35" viewBox="0 0 35 35" fill="none" xmlns="http://www.w3.org/2000/svg">
<path d="M22.6043 20.4168H21.4522L21.0439 20.0231C21.9553 18.9643 22.6214 17.7171 22.9945 16.3708C23.3676 15.0246 23.4386 13.6125 23.2022 12.2356C22.5168 8.1814 19.1335 4.9439 15.0501 4.44806C13.6146 4.26645 12.1565 4.41565 10.7875 4.88423C9.41844 5.35282 8.17475 6.12838 7.15157 7.15157C6.12838 8.17475 5.35282 9.41844 4.88423 10.7875C4.41565 12.1565 4.26645 13.6146 4.44806 15.0501C4.9439 19.1335 8.1814 22.5168 12.2356 23.2022C13.6125 23.4386 15.0246 23.3676 16.3708 22.9945C17.7171 22.6214 18.9643 21.9553 20.0231 21.0439L20.4168 21.4522V22.6043L26.6147 28.8022C27.2126 29.4001 28.1897 29.4001 28.7876 28.8022C29.3856 28.2043 29.3856 27.2272 28.7876 26.6293L22.6043 20.4168ZM13.8543 20.4168C10.2231 20.4168 7.29181 17.4856 7.29181 13.8543C7.29181 10.2231 10.2231 7.29181 13.8543 7.29181C17.4856 7.29181 20.4168 10.2231 20.4168 13.8543C20.4168 17.4856 17.4856 20.4168 13.8543 20.4168Z" fill="#0079C2"/>
</svg>
