<svg width="35" height="35" viewBox="0 0 35 35" fill="none" xmlns="http://www.w3.org/2000/svg">
<path d="M22.6041 20.4168H21.452L21.0437 20.0231C21.955 18.9643 22.6211 17.7171 22.9942 16.3708C23.3674 15.0246 23.4383 13.6125 23.202 12.2356C22.5166 8.1814 19.1332 4.9439 15.0499 4.44806C13.6143 4.26645 12.1563 4.41565 10.7872 4.88423C9.4182 5.35282 8.17451 6.12838 7.15132 7.15157C6.12814 8.17475 5.35258 9.41844 4.88399 10.7875C4.4154 12.1565 4.26621 13.6146 4.44782 15.0501C4.94365 19.1335 8.18115 22.5168 12.2353 23.2022C13.6122 23.4386 15.0243 23.3676 16.3706 22.9945C17.7169 22.6214 18.964 21.9553 20.0228 21.0439L20.4166 21.4522V22.6043L26.6145 28.8022C27.2124 29.4001 28.1895 29.4001 28.7874 28.8022C29.3853 28.2043 29.3853 27.2272 28.7874 26.6293L22.6041 20.4168ZM13.8541 20.4168C10.2228 20.4168 7.29157 17.4856 7.29157 13.8543C7.29157 10.2231 10.2228 7.29181 13.8541 7.29181C17.4853 7.29181 20.4166 10.2231 20.4166 13.8543C20.4166 17.4856 17.4853 20.4168 13.8541 20.4168Z" fill="#0079C2"/>
</svg>
