<svg width="70" height="70" viewBox="0 0 70 70" fill="none" xmlns="http://www.w3.org/2000/svg">
<path d="M35 64.1663C30.9653 64.1663 27.1736 63.4002 23.625 61.868C20.0764 60.3358 16.9896 58.2582 14.3646 55.6351C11.7396 53.0101 9.66192 49.9233 8.13165 46.3747C6.60137 42.8261 5.83526 39.0344 5.83331 34.9997C5.83331 30.965 6.59942 27.1733 8.13165 23.6247C9.66387 20.0761 11.7415 16.9893 14.3646 14.3643C16.9896 11.7393 20.0764 9.66162 23.625 8.13134C27.1736 6.60106 30.9653 5.83495 35 5.83301C39.0347 5.83301 42.8264 6.59912 46.375 8.13134C49.9236 9.66356 53.0104 11.7412 55.6354 14.3643C58.2604 16.9893 60.339 20.0761 61.8712 23.6247C63.4035 27.1733 64.1686 30.965 64.1666 34.9997C64.1666 39.0344 63.4005 42.8261 61.8683 46.3747C60.3361 49.9233 58.2585 53.0101 55.6354 55.6351C53.0104 58.2601 49.9236 60.3387 46.375 61.8709C42.8264 63.4031 39.0347 64.1683 35 64.1663ZM35.5833 37.9163L32.9583 40.5413C32.4236 41.0761 32.1562 41.7566 32.1562 42.583C32.1562 43.4094 32.4236 44.09 32.9583 44.6247C33.493 45.1594 34.1736 45.4268 35 45.4268C35.8264 45.4268 36.5069 45.1594 37.0416 44.6247L44.625 37.0413C45.2083 36.458 45.5 35.7775 45.5 34.9997C45.5 34.2219 45.2083 33.5413 44.625 32.958L37.0416 25.3747C36.5069 24.84 35.8264 24.5726 35 24.5726C34.1736 24.5726 33.493 24.84 32.9583 25.3747C32.4236 25.9094 32.1562 26.59 32.1562 27.4163C32.1562 28.2427 32.4236 28.9233 32.9583 29.458L35.5833 32.083H26.25C25.4236 32.083 24.7304 32.363 24.1704 32.923C23.6104 33.483 23.3314 34.1752 23.3333 34.9997C23.3333 35.8261 23.6133 36.5193 24.1733 37.0793C24.7333 37.6393 25.4255 37.9183 26.25 37.9163H35.5833Z" fill="black"/>
</svg>
