<svg width="64" height="64" viewBox="0 0 64 64" fill="none" xmlns="http://www.w3.org/2000/svg">
<path d="M29.332 42.6668H34.6654V31.4668L38.932 35.7335L42.6654 32.0002L31.9987 21.3335L21.332 32.0002L25.0654 35.7335L29.332 31.4668V42.6668ZM31.9987 58.6668C28.3098 58.6668 24.8431 57.9664 21.5987 56.5655C18.3543 55.1646 15.532 53.2651 13.132 50.8668C10.732 48.4668 8.83248 45.6446 7.43336 42.4002C6.03425 39.1557 5.33381 35.6891 5.33203 32.0002C5.33203 28.3113 6.03248 24.8446 7.43336 21.6002C8.83425 18.3557 10.7338 15.5335 13.132 13.1335C15.532 10.7335 18.3543 8.83394 21.5987 7.43483C24.8431 6.03572 28.3098 5.33527 31.9987 5.3335C35.6876 5.3335 39.1543 6.03394 42.3987 7.43483C45.6431 8.83572 48.4654 10.7353 50.8654 13.1335C53.2654 15.5335 55.1658 18.3557 56.5667 21.6002C57.9676 24.8446 58.6671 28.3113 58.6654 32.0002C58.6654 35.6891 57.9649 39.1557 56.564 42.4002C55.1631 45.6446 53.2636 48.4668 50.8654 50.8668C48.4654 53.2668 45.6431 55.1673 42.3987 56.5682C39.1543 57.9691 35.6876 58.6686 31.9987 58.6668ZM31.9987 53.3335C37.9543 53.3335 42.9987 51.2668 47.132 47.1335C51.2654 43.0002 53.332 37.9557 53.332 32.0002C53.332 26.0446 51.2654 21.0002 47.132 16.8668C42.9987 12.7335 37.9543 10.6668 31.9987 10.6668C26.0431 10.6668 20.9987 12.7335 16.8654 16.8668C12.732 21.0002 10.6654 26.0446 10.6654 32.0002C10.6654 37.9557 12.732 43.0002 16.8654 47.1335C20.9987 51.2668 26.0431 53.3335 31.9987 53.3335Z" fill="#1B69B3"/>
</svg>
