<svg width="68" height="68" viewBox="0 0 68 68" fill="none" xmlns="http://www.w3.org/2000/svg">
<path d="M33.4332 36.8337H42.4998C43.3026 36.8337 43.976 36.5617 44.52 36.0177C45.064 35.4737 45.3351 34.8012 45.3332 34.0003C45.3332 33.1975 45.0612 32.5242 44.5172 31.9802C43.9732 31.4362 43.3007 31.1651 42.4998 31.167H33.4332L35.9832 28.617C36.5026 28.0975 36.7623 27.4364 36.7623 26.6337C36.7623 25.8309 36.5026 25.1698 35.9832 24.6503C35.4637 24.1309 34.8026 23.8712 33.9998 23.8712C33.1971 23.8712 32.5359 24.1309 32.0165 24.6503L24.6498 32.017C24.0832 32.5837 23.7998 33.2448 23.7998 34.0003C23.7998 34.7559 24.0832 35.417 24.6498 35.9837L32.0165 43.3503C32.5359 43.8698 33.1971 44.1295 33.9998 44.1295C34.8026 44.1295 35.4637 43.8698 35.9832 43.3503C36.5026 42.8309 36.7623 42.1698 36.7623 41.367C36.7623 40.5642 36.5026 39.9031 35.9832 39.3837L33.4332 36.8337ZM33.9998 62.3337C30.0804 62.3337 26.3971 61.5894 22.9498 60.101C19.5026 58.6125 16.504 56.5943 13.954 54.0462C11.404 51.4962 9.38573 48.4975 7.89917 45.0503C6.41262 41.6031 5.66839 37.9198 5.6665 34.0003C5.6665 30.0809 6.41073 26.3975 7.89917 22.9503C9.38762 19.5031 11.4059 16.5045 13.954 13.9545C16.504 11.4045 19.5026 9.38621 22.9498 7.89966C26.3971 6.4131 30.0804 5.66888 33.9998 5.66699C37.9193 5.66699 41.6026 6.41121 45.0498 7.89966C48.4971 9.3881 51.4957 11.4064 54.0457 13.9545C56.5957 16.5045 58.6149 19.5031 60.1033 22.9503C61.5918 26.3975 62.3351 30.0809 62.3332 34.0003C62.3332 37.9198 61.5889 41.6031 60.1005 45.0503C58.6121 48.4975 56.5938 51.4962 54.0457 54.0462C51.4957 56.5962 48.4971 58.6154 45.0498 60.1038C41.6026 61.5923 37.9193 62.3355 33.9998 62.3337Z" fill="black"/>
</svg>
