<svg width="70" height="70" viewBox="0 0 70 70" fill="none" xmlns="http://www.w3.org/2000/svg">
<path d="M35.0002 64.1663C30.9654 64.1663 27.1738 63.4002 23.6252 61.868C20.0766 60.3358 16.9897 58.2582 14.3647 55.6351C11.7397 53.0101 9.66211 49.9233 8.13183 46.3747C6.60155 42.8261 5.83544 39.0344 5.8335 34.9997C5.8335 30.965 6.59961 27.1733 8.13183 23.6247C9.66405 20.0761 11.7417 16.9893 14.3647 14.3643C16.9897 11.7393 20.0766 9.66162 23.6252 8.13134C27.1738 6.60106 30.9654 5.83495 35.0002 5.83301C39.0349 5.83301 42.8266 6.59912 46.3752 8.13134C49.9238 9.66356 53.0106 11.7412 55.6356 14.3643C58.2606 16.9893 60.3392 20.0761 61.8714 23.6247C63.4036 27.1733 64.1688 30.965 64.1668 34.9997C64.1668 39.0344 63.4007 42.8261 61.8685 46.3747C60.3363 49.9233 58.2586 53.0101 55.6356 55.6351C53.0106 58.2601 49.9238 60.3387 46.3752 61.8709C42.8266 63.4031 39.0349 64.1683 35.0002 64.1663ZM35.5835 37.9163L32.9585 40.5413C32.4238 41.0761 32.1564 41.7566 32.1564 42.583C32.1564 43.4094 32.4238 44.09 32.9585 44.6247C33.4932 45.1594 34.1738 45.4268 35.0002 45.4268C35.8266 45.4268 36.5071 45.1594 37.0418 44.6247L44.6252 37.0413C45.2085 36.458 45.5002 35.7775 45.5002 34.9997C45.5002 34.2219 45.2085 33.5413 44.6252 32.958L37.0418 25.3747C36.5071 24.84 35.8266 24.5726 35.0002 24.5726C34.1738 24.5726 33.4932 24.84 32.9585 25.3747C32.4238 25.9094 32.1564 26.59 32.1564 27.4163C32.1564 28.2427 32.4238 28.9233 32.9585 29.458L35.5835 32.083H26.2502C25.4238 32.083 24.7306 32.363 24.1706 32.923C23.6106 33.483 23.3316 34.1752 23.3335 34.9997C23.3335 35.8261 23.6135 36.5193 24.1735 37.0793C24.7335 37.6393 25.4257 37.9183 26.2502 37.9163H35.5835Z" fill="black"/>
</svg>
