<svg width="70" height="70" viewBox="0 0 70 70" fill="none" xmlns="http://www.w3.org/2000/svg">
<path d="M34.9999 64.1663C30.9652 64.1663 27.1735 63.4002 23.6249 61.868C20.0763 60.3358 16.9895 58.2582 14.3645 55.6351C11.7395 53.0101 9.66186 49.9233 8.13159 46.3747C6.60131 42.8261 5.8352 39.0344 5.83325 34.9997C5.83325 30.965 6.59936 27.1733 8.13159 23.6247C9.66381 20.0761 11.7414 16.9893 14.3645 14.3643C16.9895 11.7393 20.0763 9.66162 23.6249 8.13134C27.1735 6.60106 30.9652 5.83495 34.9999 5.83301C39.0346 5.83301 42.8263 6.59912 46.3749 8.13134C49.9235 9.66356 53.0103 11.7412 55.6353 14.3643C58.2603 16.9893 60.3389 20.0761 61.8712 23.6247C63.4034 27.1733 64.1685 30.965 64.1666 34.9997C64.1666 39.0344 63.4005 42.8261 61.8683 46.3747C60.336 49.9233 58.2584 53.0101 55.6353 55.6351C53.0103 58.2601 49.9235 60.3387 46.3749 61.8709C42.8263 63.4031 39.0346 64.1683 34.9999 64.1663ZM35.5833 37.9163L32.9583 40.5413C32.4235 41.0761 32.1562 41.7566 32.1562 42.583C32.1562 43.4094 32.4235 44.09 32.9583 44.6247C33.493 45.1594 34.1735 45.4268 34.9999 45.4268C35.8263 45.4268 36.5069 45.1594 37.0416 44.6247L44.6249 37.0413C45.2083 36.458 45.4999 35.7775 45.4999 34.9997C45.4999 34.2219 45.2083 33.5413 44.6249 32.958L37.0416 25.3747C36.5069 24.84 35.8263 24.5726 34.9999 24.5726C34.1735 24.5726 33.493 24.84 32.9583 25.3747C32.4235 25.9094 32.1562 26.59 32.1562 27.4163C32.1562 28.2427 32.4235 28.9233 32.9583 29.458L35.5833 32.083H26.2499C25.4235 32.083 24.7303 32.363 24.1703 32.923C23.6103 33.483 23.3313 34.1752 23.3333 34.9997C23.3333 35.8261 23.6133 36.5193 24.1733 37.0793C24.7333 37.6393 25.4255 37.9183 26.2499 37.9163H35.5833Z" fill="black"/>
</svg>
