<svg width="68" height="68" viewBox="0 0 68 68" fill="none" xmlns="http://www.w3.org/2000/svg">
<path d="M33.4333 36.8337H42.5C43.3027 36.8337 43.9761 36.5617 44.5201 36.0177C45.0641 35.4737 45.3352 34.8012 45.3333 34.0003C45.3333 33.1975 45.0613 32.5242 44.5173 31.9802C43.9733 31.4362 43.3008 31.1651 42.5 31.167H33.4333L35.9833 28.617C36.5027 28.0975 36.7625 27.4364 36.7625 26.6337C36.7625 25.8309 36.5027 25.1698 35.9833 24.6503C35.4638 24.1309 34.8027 23.8712 34 23.8712C33.1972 23.8712 32.5361 24.1309 32.0166 24.6503L24.65 32.017C24.0833 32.5837 23.8 33.2448 23.8 34.0003C23.8 34.7559 24.0833 35.417 24.65 35.9837L32.0166 43.3503C32.5361 43.8698 33.1972 44.1295 34 44.1295C34.8027 44.1295 35.4638 43.8698 35.9833 43.3503C36.5027 42.8309 36.7625 42.1698 36.7625 41.367C36.7625 40.5642 36.5027 39.9031 35.9833 39.3837L33.4333 36.8337ZM34 62.3337C30.0805 62.3337 26.3972 61.5894 22.95 60.101C19.5027 58.6125 16.5041 56.5943 13.9541 54.0462C11.4041 51.4962 9.38585 48.4975 7.89929 45.0503C6.41274 41.6031 5.66851 37.9198 5.66663 34.0003C5.66663 30.0809 6.41085 26.3975 7.89929 22.9503C9.38774 19.5031 11.406 16.5045 13.9541 13.9545C16.5041 11.4045 19.5027 9.38621 22.95 7.89966C26.3972 6.4131 30.0805 5.66888 34 5.66699C37.9194 5.66699 41.6027 6.41121 45.05 7.89966C48.4972 9.3881 51.4958 11.4064 54.0458 13.9545C56.5958 16.5045 58.615 19.5031 60.1035 22.9503C61.5919 26.3975 62.3352 30.0809 62.3333 34.0003C62.3333 37.9198 61.5891 41.6031 60.1006 45.0503C58.6122 48.4975 56.5939 51.4962 54.0458 54.0462C51.4958 56.5962 48.4972 58.6154 45.05 60.1038C41.6027 61.5923 37.9194 62.3355 34 62.3337Z" fill="black"/>
</svg>
