<svg width="89" height="89" viewBox="0 0 89 89" fill="none" xmlns="http://www.w3.org/2000/svg">
<path d="M40.7915 59.3333H48.2082V43.7583L54.1415 49.6917L59.3332 44.5L44.4998 29.6667L29.6665 44.5L34.8582 49.6917L40.7915 43.7583V59.3333ZM44.4998 81.5833C39.37 81.5833 34.5491 80.6093 30.0373 78.6612C25.5255 76.7131 21.6009 74.0715 18.2634 70.7365C14.9259 67.399 12.2843 63.4743 10.3387 58.9625C8.39303 54.4507 7.41898 49.6299 7.4165 44.5C7.4165 39.3701 8.39056 34.5493 10.3387 30.0375C12.2868 25.5257 14.9284 21.601 18.2634 18.2635C21.6009 14.926 25.5255 12.2845 30.0373 10.3388C34.5491 8.3932 39.37 7.41914 44.4998 7.41667C49.6297 7.41667 54.4505 8.39073 58.9623 10.3388C63.4741 12.2869 67.3988 14.9285 70.7363 18.2635C74.0738 21.601 76.7166 25.5257 78.6647 30.0375C80.6128 34.5493 81.5856 39.3701 81.5832 44.5C81.5832 49.6299 80.6091 54.4507 78.661 58.9625C76.7129 63.4743 74.0713 67.399 70.7363 70.7365C67.3988 74.074 63.4741 76.7168 58.9623 78.6649C54.4505 80.613 49.6297 81.5858 44.4998 81.5833ZM44.4998 74.1667C52.7818 74.1667 59.7967 71.2927 65.5446 65.5448C71.2925 59.7969 74.1665 52.7819 74.1665 44.5C74.1665 36.2181 71.2925 29.2031 65.5446 23.4552C59.7967 17.7073 52.7818 14.8333 44.4998 14.8333C36.2179 14.8333 29.203 17.7073 23.455 23.4552C17.7071 29.2031 14.8332 36.2181 14.8332 44.5C14.8332 52.7819 17.7071 59.7969 23.455 65.5448C29.203 71.2927 36.2179 74.1667 44.4998 74.1667Z" fill="#1B69B3"/>
</svg>
