<svg width="33" height="33" viewBox="0 0 33 33" fill="none" xmlns="http://www.w3.org/2000/svg">
<rect width="33" height="33" fill="white"/>
<path d="M16.5 6C17.8261 6 19.0979 6.52678 20.0355 7.46447C20.9732 8.40215 21.5 9.67392 21.5 11C21.5 12.3261 20.9732 13.5979 20.0355 14.5355C19.0979 15.4732 17.8261 16 16.5 16C15.1739 16 13.9021 15.4732 12.9645 14.5355C12.0268 13.5979 11.5 12.3261 11.5 11C11.5 9.67392 12.0268 8.40215 12.9645 7.46447C13.9021 6.52678 15.1739 6 16.5 6ZM16.5 19.75C19.478 19.75 22.1482 20.3541 24.0555 21.3077C25.9924 22.2762 27 23.5219 27 24.75V27H6V24.75C6 23.5219 7.00756 22.2762 8.94454 21.3077C10.8518 20.3541 13.522 19.75 16.5 19.75Z" stroke="#0079C2"/>
</svg>
