<svg width="35" height="35" viewBox="0 0 35 35" fill="none" xmlns="http://www.w3.org/2000/svg">
<g clip-path="url(#clip0_1_1900)">
<rect width="35" height="35" fill="white"/>
<path d="M25.0614 9.81333H25.0616C25.9971 9.81354 26.9234 9.998 27.7876 10.3562C28.6518 10.7144 29.437 11.2393 30.0983 11.9009C30.7597 12.5626 31.2843 13.348 31.6421 14.2124C31.9999 15.0768 32.1839 16.0031 32.1837 16.9387C32.1835 17.8742 31.9991 18.8005 31.6409 19.6647C31.2827 20.5289 30.7578 21.3141 30.0961 21.9754C29.4345 22.6368 28.6491 23.1614 27.7847 23.5192C26.9203 23.877 25.994 24.061 25.0585 24.0608L25.0614 9.81333ZM25.0614 9.81333H25.0585C24.123 9.81333 23.1967 9.99759 22.3324 10.3556M25.0614 9.81333L22.3324 10.3556M22.3324 10.3556C21.4681 10.7136 20.6828 11.2383 20.0213 11.8998M22.3324 10.3556L20.0213 11.8998M20.0213 11.8998C19.3598 12.5613 18.835 13.3466 18.477 14.2109M20.0213 11.8998L18.477 14.2109M18.477 14.2109C18.119 15.0752 17.9348 16.0016 17.9348 16.9371M18.477 14.2109L17.9348 16.9371M17.9348 16.9371C17.9348 17.8726 18.119 18.7989 18.477 19.6632M17.9348 16.9371L18.477 19.6632M18.477 19.6632C18.835 20.5275 19.3598 21.3128 20.0213 21.9743M18.477 19.6632L20.0213 21.9743M20.0213 21.9743C20.6828 22.6358 21.4681 23.1606 22.3324 23.5186M20.0213 21.9743L22.3324 23.5186M22.3324 23.5186C23.1967 23.8766 24.123 24.0608 25.0584 24.0608L22.3324 23.5186ZM34.4985 16.936L34.4986 16.9974L34.4998 17.0022C34.4835 19.4832 33.4912 21.8591 31.7362 23.6152C29.9668 25.3856 27.567 26.3811 25.064 26.3829H9.93999C7.43596 26.3829 5.03449 25.3882 3.26387 23.6176C1.49326 21.847 0.498535 19.4455 0.498535 16.9415C0.498535 14.4374 1.49326 12.036 3.26387 10.2653C5.03449 8.49472 7.43596 7.5 9.93999 7.5H25.057C25.057 7.5 25.057 7.5 25.0571 7.5C27.56 7.50039 29.9604 8.49447 31.7308 10.2638C33.5012 12.0332 34.4967 14.433 34.4985 16.936Z" stroke="#0079C2"/>
</g>
<defs>
<clipPath id="clip0_1_1900">
<rect width="35" height="35" fill="white"/>
</clipPath>
</defs>
</svg>
