<svg width="35" height="35" viewBox="0 0 35 35" fill="none" xmlns="http://www.w3.org/2000/svg">
<path d="M22.6041 20.4149H21.452L21.0437 20.0211C21.955 18.9623 22.6211 17.7152 22.9942 16.3689C23.3674 15.0226 23.4383 13.6105 23.202 12.2336C22.5166 8.17944 19.1332 4.94194 15.0499 4.44611C13.6143 4.2645 12.1563 4.41369 10.7872 4.88228C9.4182 5.35087 8.17451 6.12643 7.15132 7.14961C6.12814 8.1728 5.35258 9.41649 4.88399 10.7855C4.4154 12.1546 4.26621 13.6126 4.44782 15.0482C4.94365 19.1315 8.18115 22.5149 12.2353 23.2003C13.6122 23.4366 15.0243 23.3657 16.3706 22.9925C17.7169 22.6194 18.964 21.9533 20.0228 21.0419L20.4166 21.4503V22.6024L26.6145 28.8003C27.2124 29.3982 28.1895 29.3982 28.7874 28.8003C29.3853 28.2024 29.3853 27.2253 28.7874 26.6274L22.6041 20.4149ZM13.8541 20.4149C10.2228 20.4149 7.29157 17.4836 7.29157 13.8524C7.29157 10.2211 10.2228 7.28986 13.8541 7.28986C17.4853 7.28986 20.4166 10.2211 20.4166 13.8524C20.4166 17.4836 17.4853 20.4149 13.8541 20.4149Z" fill="#0079C2"/>
</svg>
