<svg width="64" height="64" viewBox="0 0 64 64" fill="none" xmlns="http://www.w3.org/2000/svg">
<path d="M29.332 42.6654H34.6654V31.4654L38.932 35.732L42.6654 31.9987L31.9987 21.332L21.332 31.9987L25.0654 35.732L29.332 31.4654V42.6654ZM31.9987 58.6654C28.3098 58.6654 24.8431 57.9649 21.5987 56.564C18.3543 55.1631 15.532 53.2636 13.132 50.8654C10.732 48.4654 8.83248 45.6431 7.43336 42.3987C6.03425 39.1543 5.33381 35.6876 5.33203 31.9987C5.33203 28.3098 6.03248 24.8431 7.43336 21.5987C8.83425 18.3543 10.7338 15.532 13.132 13.132C15.532 10.732 18.3543 8.83248 21.5987 7.43336C24.8431 6.03425 28.3098 5.33381 31.9987 5.33203C35.6876 5.33203 39.1543 6.03248 42.3987 7.43336C45.6431 8.83425 48.4654 10.7338 50.8654 13.132C53.2654 15.532 55.1658 18.3543 56.5667 21.5987C57.9676 24.8431 58.6671 28.3098 58.6654 31.9987C58.6654 35.6876 57.9649 39.1543 56.564 42.3987C55.1631 45.6431 53.2636 48.4654 50.8654 50.8654C48.4654 53.2654 45.6431 55.1658 42.3987 56.5667C39.1543 57.9676 35.6876 58.6671 31.9987 58.6654ZM31.9987 53.332C37.9543 53.332 42.9987 51.2654 47.132 47.132C51.2654 42.9987 53.332 37.9543 53.332 31.9987C53.332 26.0431 51.2654 20.9987 47.132 16.8654C42.9987 12.732 37.9543 10.6654 31.9987 10.6654C26.0431 10.6654 20.9987 12.732 16.8654 16.8654C12.732 20.9987 10.6654 26.0431 10.6654 31.9987C10.6654 37.9543 12.732 42.9987 16.8654 47.132C20.9987 51.2654 26.0431 53.332 31.9987 53.332Z" fill="#1B69B3"/>
</svg>
