<svg width="64" height="64" viewBox="0 0 64 64" fill="none" xmlns="http://www.w3.org/2000/svg">
<path d="M29.332 42.6673H34.6654V31.4673L38.932 35.734L42.6654 32.0007L31.9987 21.334L21.332 32.0007L25.0654 35.734L29.332 31.4673V42.6673ZM31.9987 58.6673C28.3098 58.6673 24.8431 57.9669 21.5987 56.566C18.3543 55.1651 15.532 53.2655 13.132 50.8673C10.732 48.4673 8.83248 45.6451 7.43336 42.4007C6.03425 39.1562 5.33381 35.6895 5.33203 32.0007C5.33203 28.3118 6.03248 24.8451 7.43336 21.6007C8.83425 18.3562 10.7338 15.534 13.132 13.134C15.532 10.734 18.3543 8.83443 21.5987 7.43532C24.8431 6.03621 28.3098 5.33576 31.9987 5.33398C35.6876 5.33398 39.1543 6.03443 42.3987 7.43532C45.6431 8.83621 48.4654 10.7358 50.8654 13.134C53.2654 15.534 55.1658 18.3562 56.5667 21.6007C57.9676 24.8451 58.6671 28.3118 58.6654 32.0007C58.6654 35.6895 57.9649 39.1562 56.564 42.4007C55.1631 45.6451 53.2636 48.4673 50.8654 50.8673C48.4654 53.2673 45.6431 55.1678 42.3987 56.5687C39.1543 57.9695 35.6876 58.6691 31.9987 58.6673ZM31.9987 53.334C37.9543 53.334 42.9987 51.2673 47.132 47.134C51.2654 43.0007 53.332 37.9562 53.332 32.0007C53.332 26.0451 51.2654 21.0007 47.132 16.8673C42.9987 12.734 37.9543 10.6673 31.9987 10.6673C26.0431 10.6673 20.9987 12.734 16.8654 16.8673C12.732 21.0007 10.6654 26.0451 10.6654 32.0007C10.6654 37.9562 12.732 43.0007 16.8654 47.134C20.9987 51.2673 26.0431 53.334 31.9987 53.334Z" fill="#1B69B3"/>
</svg>
